{
  "accessors": [
    {
      "bufferView": 2,
      "componentType": 5126,
      "count": 15533,
      "max": [
        4.219081878662109,
        3.7347331047058105,
        19.12671661376953
      ],
      "min": [
        -4.097074031829834,
        -3.734731912612915,
        -0.13053900003433228
      ],
      "type": "VEC3"
    },
    {
      "bufferView": 2,
      "byteOffset": 186396,
      "componentType": 5126,
      "count": 15533,
      "max": [
        1.0,
        1.0,
        1.0
      ],
      "min": [
        -1.0,
        -1.0,
        -0.9999993443489075
      ],
      "type": "VEC3"
    },
    {
      "bufferView": 3,
      "componentType": 5126,
      "count": 15533,
      "max": [
        0.9999995231628418,
        1.0,
        0.9999192357063293,
        1.0
      ],
      "min": [
        -0.9999982118606567,
        -0.9999996423721313,
        -0.9999999403953552,
        -1.0
      ],
      "type": "VEC4"
    },
    {
      "bufferView": 1,
      "componentType": 5126,
      "count": 15533,
      "max": [
        0.9949399828910828,
        0.9964249730110168
      ],
      "min": [
        -0.00107999995816499,
        -0.12591199576854706
      ],
      "type": "VEC2"
    },
    {
      "bufferView": 0,
      "componentType": 5125,
      "count": 87696,
      "type": "SCALAR"
    }
  ],
  "asset": {
    "extras": {
      "author": "hamid.vfx (https://sketchfab.com/hamid.vfx)",
      "license": "CC-BY-4.0 (http://creativecommons.org/licenses/by/4.0/)",
      "source": "https://sketchfab.com/3d-models/shampoo-bottle-d5482be7309e47c7ab569b7312407f7c",
      "title": "Shampoo bottle"
    },
    "generator": "Sketchfab-14.56.0",
    "version": "2.0"
  },
  "bufferViews": [
    {
      "buffer": 0,
      "byteLength": 350784,
      "name": "floatBufferViews",
      "target": 34963
    },
    {
      "buffer": 0,
      "byteLength": 124264,
      "byteOffset": 350784,
      "byteStride": 8,
      "name": "floatBufferViews",
      "target": 34962
    },
    {
      "buffer": 0,
      "byteLength": 372792,
      "byteOffset": 475048,
      "byteStride": 12,
      "name": "floatBufferViews",
      "target": 34962
    },
    {
      "buffer": 0,
      "byteLength": 248528,
      "byteOffset": 847840,
      "byteStride": 16,
      "name": "floatBufferViews",
      "target": 34962
    }
  ],
  "buffers": [
    {
      "byteLength": 1096368,
      "uri": "scene.bin"
    }
  ],
  "images": [
    {
      "uri": "textures/wire_143225087_baseColor.png"
    },
    {
      "uri": "textures/wire_143225087_metallicRoughness.png"
    },
    {
      "uri": "textures/wire_143225087_normal.png"
    }
  ],
  "materials": [
    {
      "doubleSided": true,
      "name": "wire_143225087",
      "normalTexture": {
        "index": 2
      },
      "pbrMetallicRoughness": {
        "baseColorTexture": {
          "index": 0
        },
        "metallicRoughnessTexture": {
          "index": 1
        }
      }
    }
  ],
  "meshes": [
    {
      "name": "Object_0",
      "primitives": [
        {
          "attributes": {
            "NORMAL": 1,
            "POSITION": 0,
            "TANGENT": 2,
            "TEXCOORD_0": 3
          },
          "indices": 4,
          "material": 0,
          "mode": 4
        }
      ]
    }
  ],
  "nodes": [
    {
      "children": [
        1
      ],
      "matrix": [
        1.0,
        0.0,
        0.0,
        0.0,
        0.0,
        2.220446049250313e-16,
        -1.0,
        0.0,
        0.0,
        1.0,
        2.220446049250313e-16,
        0.0,
        0.0,
        0.0,
        0.0,
        1.0
      ],
      "name": "Sketchfab_model"
    },
    {
      "children": [
        2
      ],
      "name": "Shampoo bottle.obj.cleaner.materialmerger.gles"
    },
    {
      "mesh": 0,
      "name": "Object_2"
    }
  ],
  "samplers": [
    {
      "magFilter": 9729,
      "minFilter": 9987,
      "wrapS": 10497,
      "wrapT": 10497
    }
  ],
  "scene": 0,
  "scenes": [
    {
      "name": "Sketchfab_Scene",
      "nodes": [
        0
      ]
    }
  ],
  "textures": [
    {
      "sampler": 0,
      "source": 0
    },
    {
      "sampler": 0,
      "source": 1
    },
    {
      "sampler": 0,
      "source": 2
    }
  ]
}
